<?xml version="1.0" encoding="UTF-8"?>
<svg width="164px" height="200px" viewBox="0 0 164 200" version="1.1" xmlns="http://www.w3.org/2000/svg" xmlns:xlink="http://www.w3.org/1999/xlink">
    <!-- Generator: Sketch 61 (89581) - https://sketch.com -->
    <title>Images</title>
    <desc>Created with Sketch.</desc>
    <defs>
        <polygon id="path-1" points="0 0 69.5384615 0 69.5384615 60.4186633 0 60.4186633"></polygon>
        <linearGradient x1="50%" y1="21.1452096%" x2="50%" y2="80.3751871%" id="linearGradient-3">
            <stop stop-color="#FFFFFF" offset="0%"></stop>
            <stop stop-color="#FAFAFA" offset="100%"></stop>
        </linearGradient>
        <path d="M62.5848961,60.4186633 L6.95392765,60.4186633 C3.11336243,60.4186633 0,57.297357 0,53.4471045 L0,6.97128647 C0,3.1211247 3.11336243,0 6.9538371,0 L62.5848961,0 C66.4252802,0 69.5384615,3.12103392 69.5384615,6.97110491 L69.5384615,53.4475584 C69.5384615,57.2975386 66.4252802,60.4186633 62.5848961,60.4186633 L62.5848961,60.4186633 Z M64.9027814,41.908148 L64.9027814,6.97128647 C64.9027814,5.68814129 63.8649939,4.64728224 62.5848961,4.64728224 L6.95392765,4.64728224 C5.67382979,4.64728224 4.63568012,5.68814129 4.63568012,6.97128647 L4.63568012,42.2767969 L12.406364,35.9904295 C13.2308169,35.3235752 14.4012594,35.3017886 15.2497984,35.9372336 L21.048496,40.2815901 L23.1127522,41.8283542 L24.729513,38.2035031 L44.6316527,24.3442643 C45.5517258,23.7036449 46.7971432,23.8143031 47.5904472,24.6070662 L64.9027814,41.908148 Z M19.7026592,25.5617771 C16.5022787,25.5617771 13.9078553,22.9607188 13.9078553,19.752175 C13.9078553,16.5439036 16.5022787,13.9427545 19.7026592,13.9427545 C22.9030396,13.9427545 25.4974631,16.5439036 25.4974631,19.752175 C25.4974631,22.9607188 22.9030396,25.5617771 19.7026592,25.5617771 L19.7026592,25.5617771 Z" id="path-4"></path>
        <filter x="-0.7%" y="-0.8%" width="102.9%" height="103.3%" filterUnits="objectBoundingBox" id="filter-5">
            <feOffset dx="1" dy="1" in="SourceAlpha" result="shadowOffsetOuter1"></feOffset>
            <feColorMatrix values="0 0 0 0 0   0 0 0 0 0   0 0 0 0 0  0 0 0 0.12 0" type="matrix" in="shadowOffsetOuter1"></feColorMatrix>
        </filter>
    </defs>
    <g id="图标" stroke="none" stroke-width="1" fill="none" fill-rule="evenodd">
        <g id="文件" transform="translate(-184.000000, -889.000000)">
            <g id="Image" transform="translate(166.000000, 889.000000)">
                <g id="Images" transform="translate(18.461538, 0.000000)">
                    <path d="M163.076923,190.153846 C163.076923,195.591727 158.66865,200 153.230769,200 L9.84615385,200 C4.40827323,200 -4.66312221e-15,195.591727 0,190.153846 L0,9.84615385 C1.11040853e-15,4.40827323 4.40827323,9.88070666e-15 9.84615385,0 L115.076923,0 L163.076923,48 L163.076923,190.153846 Z" id="shape" fill="#F25643"></path>
                    <g id="icon" transform="translate(45.538462, 90.461538)">
                        <mask id="mask-2" fill="white">
                            <use xlink:href="#path-1"></use>
                        </mask>
                        <g id="Clip-2"></g>
                        <g id="Fill-1" mask="url(#mask-2)">
                            <use fill="black" fill-opacity="1" filter="url(#filter-5)" xlink:href="#path-4"></use>
                            <use fill="url(#linearGradient-3)" fill-rule="evenodd" xlink:href="#path-4"></use>
                        </g>
                    </g>
                    <path d="M115.076923,0 L163.076923,48 L124.923077,48 C119.485196,48 115.076923,43.5917268 115.076923,38.1538462 L115.076923,0 L115.076923,0 Z" id="Angle" fill="#F25643"></path>
                    <path d="M115.076923,0 L163.076923,48 L124.923077,48 C119.485196,48 115.076923,43.5917268 115.076923,38.1538462 L115.076923,0 L115.076923,0 Z" id="Angle" fill="#FFFFFF" opacity="0.319999993"></path>
                </g>
            </g>
        </g>
    </g>
</svg>