<?xml version="1.0" encoding="UTF-8"?>
<svg width="164px" height="200px" viewBox="0 0 164 200" version="1.1" xmlns="http://www.w3.org/2000/svg" xmlns:xlink="http://www.w3.org/1999/xlink">
    <!-- Generator: Sketch 61 (89581) - https://sketch.com -->
    <title>PowerPoint</title>
    <desc>Created with Sketch.</desc>
    <defs>
        <linearGradient x1="50%" y1="0%" x2="50%" y2="100%" id="linearGradient-1">
            <stop stop-color="#FF943E" offset="0%"></stop>
            <stop stop-color="#F98B33" offset="100%"></stop>
        </linearGradient>
        <linearGradient x1="50%" y1="21.1452096%" x2="50%" y2="80.3751871%" id="linearGradient-2">
            <stop stop-color="#FFFFFF" offset="0%"></stop>
            <stop stop-color="#FAFAFA" offset="100%"></stop>
        </linearGradient>
        <path d="M59.686899,87.6045673 L84.8414008,87.6045673 C97.2889893,87.6045673 105.803486,96.1190636 105.803486,108.696314 C105.803486,121.057461 96.9864437,129.528737 84.3659721,129.528737 L70.8378637,129.528737 L70.8378637,149.972172 L59.686899,149.972172 L59.686899,87.6045673 Z M70.8378637,96.9402587 L70.8378637,120.279487 L81.859166,120.279487 C89.811792,120.279487 94.4796377,116.130291 94.4796377,108.696314 C94.4796377,101.046234 89.9414544,96.9402587 81.9023868,96.9402587 L70.8378637,96.9402587 Z" id="path-3"></path>
        <filter x="-1.1%" y="-0.8%" width="104.3%" height="103.2%" filterUnits="objectBoundingBox" id="filter-4">
            <feOffset dx="1" dy="1" in="SourceAlpha" result="shadowOffsetOuter1"></feOffset>
            <feColorMatrix values="0 0 0 0 0   0 0 0 0 0   0 0 0 0 0  0 0 0 0.12 0" type="matrix" in="shadowOffsetOuter1"></feColorMatrix>
        </filter>
    </defs>
    <g id="图标" stroke="none" stroke-width="1" fill="none" fill-rule="evenodd">
        <g id="文件" transform="translate(-708.000000, -289.000000)">
            <g id="PowerPoint" transform="translate(690.000000, 289.000000)">
                <g transform="translate(18.461538, 0.000000)">
                    <path d="M163.076923,190.153846 C163.076923,195.591727 158.66865,200 153.230769,200 L9.84615385,200 C4.40827323,200 -4.66312221e-15,195.591727 0,190.153846 L0,9.84615385 C1.11040853e-15,4.40827323 4.40827323,9.88070666e-15 9.84615385,0 L115.076923,0 L163.076923,48 L163.076923,190.153846 Z" id="shape" fill="url(#linearGradient-1)"></path>
                    <g id="P" fill-rule="nonzero">
                        <use fill="black" fill-opacity="1" filter="url(#filter-4)" xlink:href="#path-3"></use>
                        <use fill="#FFFFFF" xlink:href="#path-3"></use>
                        <use fill="url(#linearGradient-2)" xlink:href="#path-3"></use>
                    </g>
                    <path d="M115.076923,0 L163.076923,48 L124.923077,48 C119.485196,48 115.076923,43.5917268 115.076923,38.1538462 L115.076923,0 L115.076923,0 Z" id="Angle" fill="#FF943E"></path>
                    <path d="M115.076923,0 L163.076923,48 L124.923077,48 C119.485196,48 115.076923,43.5917268 115.076923,38.1538462 L115.076923,0 L115.076923,0 Z" id="Angle" fill="#FFFFFF" opacity="0.319999993"></path>
                </g>
            </g>
        </g>
    </g>
</svg>