<?xml version="1.0" encoding="UTF-8"?>
<svg width="164px" height="200px" viewBox="0 0 164 200" version="1.1" xmlns="http://www.w3.org/2000/svg" xmlns:xlink="http://www.w3.org/1999/xlink">
    <!-- Generator: Sketch 61 (89581) - https://sketch.com -->
    <title>Txt</title>
    <desc>Created with Sketch.</desc>
    <defs>
        <linearGradient x1="50%" y1="0%" x2="50%" y2="100%" id="linearGradient-1">
            <stop stop-color="#3296FA" offset="0%"></stop>
            <stop stop-color="#288DF2" offset="100%"></stop>
        </linearGradient>
        <path d="M163.076923,190.153846 C163.076923,195.591727 158.66865,200 153.230769,200 L9.84615385,200 C4.40827323,200 -4.66312221e-15,195.591727 0,190.153846 L0,9.84615385 C1.11040853e-15,4.40827323 4.40827323,9.88070666e-15 9.84615385,0 L115.076923,0 L163.076923,48 L163.076923,190.153846 Z" id="path-2"></path>
        <filter x="-0.3%" y="-0.2%" width="100.6%" height="100.5%" filterUnits="objectBoundingBox" id="filter-3">
            <feOffset dx="0" dy="1" in="SourceAlpha" result="shadowOffsetInner1"></feOffset>
            <feComposite in="shadowOffsetInner1" in2="SourceAlpha" operator="arithmetic" k2="-1" k3="1" result="shadowInnerInner1"></feComposite>
            <feColorMatrix values="0 0 0 0 1   0 0 0 0 1   0 0 0 0 1  0 0 0 0.155785621 0" type="matrix" in="shadowInnerInner1"></feColorMatrix>
        </filter>
        <linearGradient x1="50%" y1="21.1452096%" x2="50%" y2="80.3751871%" id="linearGradient-4">
            <stop stop-color="#FFFFFF" offset="0%"></stop>
            <stop stop-color="#FAFAFA" offset="100%"></stop>
        </linearGradient>
        <text id="text-5" font-family="Helvetica" font-size="55.3846154" font-weight="normal" letter-spacing="-2.21538456">
            <tspan x="31.9444711" y="139.538462">TXT</tspan>
        </text>
        <filter x="-0.5%" y="-0.7%" width="104.1%" height="103.0%" filterUnits="objectBoundingBox" id="filter-6">
            <feOffset dx="1" dy="1" in="SourceAlpha" result="shadowOffsetOuter1"></feOffset>
            <feColorMatrix values="0 0 0 0 0   0 0 0 0 0   0 0 0 0 0  0 0 0 0.12 0" type="matrix" in="shadowOffsetOuter1"></feColorMatrix>
        </filter>
    </defs>
    <g id="图标" stroke="none" stroke-width="1" fill="none" fill-rule="evenodd">
        <g id="文件" transform="translate(-1754.000000, -289.000000)">
            <g id="TXT" transform="translate(1736.000000, 289.000000)">
                <g id="Txt" transform="translate(18.461538, 0.000000)">
                    <g id="shape">
                        <use fill="url(#linearGradient-1)" fill-rule="evenodd" xlink:href="#path-2"></use>
                        <use fill="black" fill-opacity="1" filter="url(#filter-3)" xlink:href="#path-2"></use>
                    </g>
                    <g id="TXT">
                        <use fill="#D8D8D8" fill-opacity="1" filter="url(#filter-6)" xlink:href="#text-5"></use>
                        <use fill="url(#linearGradient-4)" fill-rule="evenodd" xlink:href="#text-5"></use>
                        <use fill="#D8D8D8" fill-opacity="1" xlink:href="#text-5"></use>
                    </g>
                    <path d="M115.076923,0 L163.076923,48 L124.923077,48 C119.485196,48 115.076923,43.5917268 115.076923,38.1538462 L115.076923,0 L115.076923,0 Z" id="Angle" fill="#3296FA"></path>
                    <path d="M115.076923,0 L163.076923,48 L124.923077,48 C119.485196,48 115.076923,43.5917268 115.076923,38.1538462 L115.076923,0 L115.076923,0 Z" id="Angle" fill="#FFFFFF" opacity="0.319999993"></path>
                </g>
            </g>
        </g>
    </g>
</svg>