<?xml version="1.0" encoding="UTF-8"?>
<svg width="30px" height="38px" viewBox="0 0 30 38" version="1.1" xmlns="http://www.w3.org/2000/svg" xmlns:xlink="http://www.w3.org/1999/xlink">
    <!-- Generator: Sketch 61 (89581) - https://sketch.com -->
    <title>编组</title>
    <desc>Created with Sketch.</desc>
    <defs>
        <linearGradient x1="18.8365651%" y1="0%" x2="81.1634349%" y2="100%" id="linearGradient-1">
            <stop stop-color="#16CE93" offset="0%"></stop>
            <stop stop-color="#12BA7B" offset="100%"></stop>
        </linearGradient>
        <path d="M2,0 L20,0 L20,0 L30,10 L30,36 C30,37.1045695 29.1045695,38 28,38 L2,38 C0.8954305,38 1.3527075e-16,37.1045695 0,36 L0,2 C-1.3527075e-16,0.8954305 0.8954305,2.02906125e-16 2,0 Z" id="path-2"></path>
    </defs>
    <g id="mobile" stroke="none" stroke-width="1" fill="none" fill-rule="evenodd">
        <g id="文档库-单位/组织文档库-文件夹" transform="translate(-16.000000, -542.000000)">
            <g id="编组" transform="translate(16.000000, 542.000000)">
                <mask id="mask-3" fill="white">
                    <use xlink:href="#path-2"></use>
                </mask>
                <use id="矩形" fill="url(#linearGradient-1)" xlink:href="#path-2"></use>
                <path d="M20.2112676,21.0175439 C22.8560115,21.0175439 25,23.0283352 25,25.5087719 C25,27.9892087 22.8560115,30 20.2112676,30 L6.26346313,30 C5.56567171,30 5,29.4363131 5,28.7409701 C5,28.045627 5.56567171,27.4819401 6.26346313,27.4819401 L20.2112676,27.4819401 C21.4410365,27.4819401 22.4647887,26.6621403 22.4647887,25.5087719 C22.4647887,24.3554036 21.4797322,23.5660198 20.2556156,23.5438596 L16.971831,23.5438596 L9.78873239,23.5438596 C7.14398852,23.5438596 5,21.4073939 5,18.7719298 C5,16.1364658 7.14398852,14 9.78873239,14 L23.7323944,14 C24.4324736,14 25,14.5655351 25,15.2631579 C25,15.9607807 24.4324736,16.5263158 23.7323944,16.5263158 L9.78873239,16.5263158 C8.55896353,16.5263158 7.55926695,17.5079159 7.53563893,18.7277375 L7.53521127,18.7719298 C7.53521127,19.9973837 8.52026775,20.9935726 9.74438441,21.0171177 L9.78873239,21.0175439 L20.2112676,21.0175439 Z" id="路径" fill="#FFFFFF" mask="url(#mask-3)"></path>
                <path d="M20,0 L30,10 L22,10 C20.8954305,10 20,9.1045695 20,8 L20,0 L20,0 Z" id="矩形" fill="#6CD9B5" mask="url(#mask-3)"></path>
            </g>
        </g>
    </g>
</svg>