<?xml version="1.0" encoding="UTF-8"?>
<svg width="16px" height="16px" viewBox="0 0 16 16" version="1.1" xmlns="http://www.w3.org/2000/svg" xmlns:xlink="http://www.w3.org/1999/xlink">
    <!-- Generator: Sketch 61 (89581) - https://sketch.com -->
    <title>组织机构</title>
    <desc>Created with Sketch.</desc>
    <g id="pc" stroke="none" stroke-width="1" fill="none" fill-rule="evenodd">
        <g id="文档库-首页" transform="translate(-23.000000, -215.000000)" fill-rule="nonzero">
            <g id="组织机构" transform="translate(22.000000, 214.000000)">
                <rect id="矩形" fill="#000000" opacity="0" x="0" y="0" width="18" height="18"></rect>
                <path d="M15.3984375,10.828125 L13.5703125,10.828125 L13.5703125,9.45703125 C13.5703125,8.95253906 13.1607422,8.54296875 12.65625,8.54296875 L9.45703125,8.54296875 L9.45703125,7.171875 L10.828125,7.171875 C11.3326172,7.171875 11.7421875,6.76230469 11.7421875,6.2578125 L11.7421875,2.6015625 C11.7421875,2.09707031 11.3326172,1.6875 10.828125,1.6875 L7.171875,1.6875 C6.66738281,1.6875 6.2578125,2.09707031 6.2578125,2.6015625 L6.2578125,6.2578125 C6.2578125,6.76230469 6.66738281,7.171875 7.171875,7.171875 L8.54296875,7.171875 L8.54296875,8.54296875 L5.34375,8.54296875 C4.83925781,8.54296875 4.4296875,8.95253906 4.4296875,9.45703125 L4.4296875,10.828125 L2.6015625,10.828125 C2.09707031,10.828125 1.6875,11.2376953 1.6875,11.7421875 L1.6875,15.3984375 C1.6875,15.9029297 2.09707031,16.3125 2.6015625,16.3125 L6.2578125,16.3125 C6.76230469,16.3125 7.171875,15.9029297 7.171875,15.3984375 L7.171875,11.7421875 C7.171875,11.2376953 6.76230469,10.828125 6.2578125,10.828125 L5.34375,10.828125 L5.34375,9.45703125 L12.65625,9.45703125 L12.65625,10.828125 L11.7421875,10.828125 C11.2376953,10.828125 10.828125,11.2376953 10.828125,11.7421875 L10.828125,15.3984375 C10.828125,15.9029297 11.2376953,16.3125 11.7421875,16.3125 L15.3984375,16.3125 C15.9029297,16.3125 16.3125,15.9029297 16.3125,15.3984375 L16.3125,11.7421875 C16.3125,11.2376953 15.9029297,10.828125 15.3984375,10.828125 Z M7.171875,6.2578125 L7.171875,2.6015625 L10.828125,2.6015625 L10.828125,6.2578125 L7.171875,6.2578125 Z M6.2578125,11.7421875 L6.2578125,15.3984375 L2.6015625,15.3984375 L2.6015625,11.7421875 L6.2578125,11.7421875 Z M15.3984375,15.3984375 L11.7421875,15.3984375 L11.7421875,11.7421875 L15.3984375,11.7421875 L15.3984375,15.3984375 Z" id="形状" fill="#3296FA"></path>
            </g>
        </g>
    </g>
</svg>