<?xml version="1.0" encoding="UTF-8"?>
<svg width="25px" height="25px" viewBox="0 0 25 25" version="1.1" xmlns="http://www.w3.org/2000/svg" xmlns:xlink="http://www.w3.org/1999/xlink">
    <!-- Generator: Sketch 61 (89581) - https://sketch.com -->
    <title>时间</title>
    <desc>Created with Sketch.</desc>
    <g id="mobile" stroke="none" stroke-width="1" fill="none" fill-rule="evenodd">
        <g id="文档库-首页" transform="translate(-17.000000, -157.000000)" fill="#3296FA" fill-rule="nonzero">
            <g id="时间" transform="translate(17.000000, 157.000000)">
                <path d="M12.92,0.176 C6.27640138,0.176 0.92,5.53240138 0.92,12.176 C0.92,18.8195986 6.34560554,24.1621592 12.92,24.1621592 C19.5635986,24.1621592 24.92,18.8057578 24.92,12.1621592 C24.92,5.51856055 19.5082353,0.176 12.92,0.176 Z M18.8206684,16.139719 C18.6594129,16.4911983 18.3741148,16.6604291 18.0516039,16.6604291 C17.9399655,16.6604291 17.8283271,16.6604291 17.7166887,16.6083581 L11.3781084,13.5882397 C11.1052145,13.47108 10.8819377,13.1196007 10.8819377,12.7811391 L10.8819377,6.53261841 C10.8819377,6.06397936 11.26647,5.66042907 11.7130236,5.66042907 C12.1595772,5.66042907 12.5441095,6.06397936 12.5441095,6.53261841 L12.5441095,12.2604291 L18.3865191,15.0332101 C18.8206684,15.2024409 18.9819239,15.67108 18.8206684,16.139719 Z" id="形状"></path>
            </g>
        </g>
    </g>
</svg>