<?xml version="1.0" encoding="UTF-8"?>
<svg width="14px" height="14px" viewBox="0 0 14 14" version="1.1" xmlns="http://www.w3.org/2000/svg" xmlns:xlink="http://www.w3.org/1999/xlink">
    <!-- Generator: Sketch 61 (89581) - https://sketch.com -->
    <title>时间</title>
    <desc>Created with Sketch.</desc>
    <g id="pc" stroke="none" stroke-width="1" fill="none" fill-rule="evenodd">
        <g id="文档库-首页" transform="translate(-24.000000, -89.000000)" fill-rule="nonzero">
            <g id="时间" transform="translate(23.000000, 88.000000)">
                <rect id="矩形" fill="#000000" opacity="0" x="0" y="0" width="16" height="16"></rect>
                <path d="M14.428125,5.3 C14.075,4.4671875 13.571875,3.71875 12.928125,3.0765625 C12.2859375,2.434375 11.5375,1.9296875 10.7046875,1.5765625 C9.8421875,1.2109375 8.9265625,1.0265625 7.98125,1.0265625 C7.0359375,1.0265625 6.1203125,1.2109375 5.2578125,1.5765625 C4.425,1.9296875 3.6765625,2.4328125 3.034375,3.0765625 C2.3921875,3.71875 1.8875,4.4671875 1.534375,5.3 C1.16875,6.1625 0.984375,7.0796875 0.984375,8.0234375 C0.984375,8.9671875 1.16875,9.884375 1.534375,10.746875 C1.8875,11.5796875 2.390625,12.328125 3.034375,12.9703125 C3.6765625,13.6125 4.425,14.1171875 5.2578125,14.4703125 C6.1203125,14.8359375 7.0375,15.0203125 7.98125,15.0203125 C8.925,15.0203125 9.8421875,14.8359375 10.7046875,14.4703125 C11.5375,14.1171875 12.2859375,13.6140625 12.928125,12.9703125 C13.5703125,12.328125 14.075,11.5796875 14.428125,10.746875 C14.79375,9.884375 14.978125,8.9671875 14.978125,8.0234375 C14.978125,7.0796875 14.79375,6.1625 14.428125,5.3 L14.428125,5.3 Z M7.98125,13.75625 C4.8203125,13.75625 2.2484375,11.184375 2.2484375,8.0234375 C2.2484375,4.8625 4.8203125,2.290625 7.98125,2.290625 C11.1421875,2.290625 13.7140625,4.8625 13.7140625,8.0234375 C13.7140625,11.184375 11.14375,13.75625 7.98125,13.75625 Z M10.8984375,7.3484375 L8.6625,7.3484375 L8.6625,4.1125 C8.6625,3.74375 8.3609375,3.4421875 7.9921875,3.4421875 C7.6234375,3.4421875 7.321875,3.74375 7.321875,4.1125 L7.321875,8.01875 C7.321875,8.3875 7.6234375,8.6890625 7.9921875,8.6890625 L10.8984375,8.6890625 C11.2671875,8.6890625 11.56875,8.3875 11.56875,8.01875 C11.5671875,7.65 11.265625,7.3484375 10.8984375,7.3484375 Z" id="形状" fill="#A3B1BF"></path>
            </g>
        </g>
    </g>
</svg>