<?xml version="1.0" encoding="UTF-8"?>
<svg width="16px" height="16px" viewBox="0 0 16 16" version="1.1" xmlns="http://www.w3.org/2000/svg" xmlns:xlink="http://www.w3.org/1999/xlink">
    <!-- Generator: Sketch 61 (89581) - https://sketch.com -->
    <title>五角星</title>
    <desc>Created with Sketch.</desc>
    <g id="pc" stroke="none" stroke-width="1" fill="none" fill-rule="evenodd">
        <g id="文档库-星标文档" transform="translate(-1309.000000, -168.000000)" fill-rule="nonzero">
            <g id="五角星" transform="translate(1309.000000, 168.000000)">
                <rect id="矩形" fill="#000000" opacity="0" x="0" y="0" width="16" height="16"></rect>
                <path d="M8.74728683,0.595263187 L10.5330764,4.26605289 C10.6322869,4.56368448 10.9299185,4.76210555 11.2275501,4.76210555 L15.0967609,5.35736873 C15.8904451,5.45657927 16.1880767,6.44868459 15.5928135,7.04394778 L12.8149187,9.92105322 C12.6164976,10.1194743 12.5172871,10.4171059 12.5172871,10.813948 L13.2117608,14.8815798 C13.3109713,15.6752641 12.5172871,16.2705273 11.9220239,15.8736852 L8.44965523,13.988685 C8.15202364,13.8894745 7.85439205,13.8894745 7.55676045,13.988685 L4.08439181,15.8736852 C3.38991809,16.2705273 2.59623383,15.6752641 2.79465491,14.8815798 L3.48912862,10.813948 C3.58833916,10.5163164 3.48912862,10.2186848 3.19149703,9.92105322 L0.314391594,6.94473725 C-0.280871594,6.44868459 0.01676,5.45657927 0.81044425,5.35736873 L4.67965502,4.76210555 C4.97728661,4.76210555 5.2749182,4.56368448 5.37412873,4.26605289 L7.15991831,0.595263187 C7.45754991,-0.198421062 8.44965523,-0.198421062 8.74728683,0.595263187 Z" id="路径" fill="#EA9518"></path>
            </g>
        </g>
    </g>
</svg>