<?xml version="1.0" encoding="UTF-8"?>
<svg width="16px" height="14px" viewBox="0 0 16 14" version="1.1" xmlns="http://www.w3.org/2000/svg" xmlns:xlink="http://www.w3.org/1999/xlink">
    <!-- Generator: Sketch 61 (89581) - https://sketch.com -->
    <title>星星 (1)</title>
    <desc>Created with Sketch.</desc>
    <g id="pc" stroke="none" stroke-width="1" fill="none" fill-rule="evenodd">
        <g id="文档库-首页" transform="translate(-23.000000, -130.000000)" fill-rule="nonzero">
            <g id="编组-5" transform="translate(0.000000, 63.000000)">
                <g id="编组" transform="translate(1.000000, 53.000000)">
                    <g id="星星-(1)" transform="translate(22.000000, 13.000000)">
                        <rect id="矩形" fill="#000000" opacity="0" x="0" y="0" width="16" height="16"></rect>
                        <path d="M3.7524,14.602192 C3.926368,14.721504 4.130416,14.782128 4.334688,14.782128 C4.503104,14.782128 4.671312,14.74136 4.823696,14.659616 L7.999616,12.949248 L11.17616,14.659616 C11.328992,14.74136 11.497408,14.782128 11.665168,14.782128 C11.869232,14.782128 12.073296,14.721504 12.247888,14.602192 C12.56336,14.384256 12.724736,14.01072 12.661552,13.638032 L12.042544,9.940656 L14.713008,7.274048 C14.977472,7.011056 15.067984,6.625152 14.947584,6.274672 C14.826768,5.924832 14.515984,5.669328 14.141824,5.613408 L10.49888,5.071456 L8.915104,1.784128 C8.74904,1.438768 8.392144,1.21784 7.999616,1.21784 C7.608368,1.21784 7.251264,1.438768 7.08456,1.784128 L5.501184,5.071456 L1.858048,5.613408 C1.483664,5.669328 1.17288,5.924832 1.052272,6.274672 C0.931888,6.625152 1.02304,7.011056 1.28728,7.274048 L3.956672,9.940656 L3.337472,13.638032 C3.27512,14.01072 3.436272,14.384256 3.7524,14.602192 Z M1.851216,6.593136 L5.482624,6.053744 L6.121488,5.958544 L6.401952,5.377104 L7.99984,2.063952 L9.597504,5.377104 L9.878192,5.958544 L10.517056,6.053744 L14.148464,6.593136 L11.500192,9.234784 L11.05536,9.678544 L11.158896,10.29776 L11.77768,13.988288 L8.57744,12.267056 L7.999184,11.955856 L7.42096,12.267056 L4.22072,13.988944 L4.839504,10.297776 L4.94304,9.67856 L4.498192,9.2348 L1.851216,6.593136 Z" id="形状" stroke="#A3B1BF" stroke-width="0.2" fill="#A3B1BF"></path>
                    </g>
                </g>
            </g>
        </g>
    </g>
</svg>