<?xml version="1.0" encoding="UTF-8"?>
<svg width="42px" height="42px" viewBox="0 0 42 42" version="1.1" xmlns="http://www.w3.org/2000/svg" xmlns:xlink="http://www.w3.org/1999/xlink">
    <!-- Generator: Sketch 61 (89581) - https://sketch.com -->
    <title>关于，信息，提示，警示</title>
    <desc>Created with Sketch.</desc>
    <g id="mobile" stroke="none" stroke-width="1" fill="none" fill-rule="evenodd">
        <g id="文档库-提示无法预览" transform="translate(-168.000000, -310.000000)" fill-rule="nonzero">
            <g id="关于，信息，提示，警示" transform="translate(168.000000, 310.000000)">
                <rect id="矩形" fill="#000000" opacity="0" x="0" y="21" width="41.9590244" height="41.9590244"></rect>
                <path d="M20.9748557,41.9590239 C9.38867637,41.956452 -0.00188528948,32.5622768 2.83909809e-07,20.9760973 C0.00188642529,9.38991782 9.39550573,-0.00119995617 20.9816853,3.55271368e-14 C32.5678648,0.00119995617 41.9595387,9.39426329 41.9590247,20.9804429 C41.9582837,26.5450495 39.7470417,31.88145 35.8117466,35.8156971 C31.8764515,39.7499442 26.5394623,41.9597648 20.9748557,41.9590239 Z M20.9469153,3.75891392 C11.4523714,3.76148589 3.75712694,11.4595102 3.75798424,20.9540544 C3.75884154,30.4485986 11.4554761,38.1452331 20.9500203,38.1460903 C30.4445644,38.1469476 38.1425887,30.4517031 38.1451608,20.9571592 C38.1459018,16.3958352 36.3343148,12.0211047 33.109059,8.7956742 C29.8838031,5.57024367 25.5091708,3.75841985 20.9478467,3.75891392 L20.9469153,3.75891392 Z M19.070252,17.1703042 L22.8887728,17.1703042 L22.8887728,32.4257605 L19.070252,32.4257605 L19.070252,17.1703042 L19.070252,17.1703042 Z M19.070252,9.54257602 L22.8887728,9.54257602 L22.8887728,13.3610969 L19.070252,13.3610969 L19.070252,9.54257602 L19.070252,9.54257602 Z" id="形状" fill="#FFFFFF"></path>
            </g>
        </g>
    </g>
</svg>